<svg xmlns="http://www.w3.org/2000/svg" viewBox="0 0 64 64"><g id="Layer_48" data-name="Layer 48"><path d="M17,62A15.017,15.017,0,0,1,2,47c0-7.952,13.6-27.73,14.177-28.568a1.038,1.038,0,0,1,1.646,0C18.4,19.27,32,39.048,32,47A15.017,15.017,0,0,1,17,62Zm0-41.213C14.023,25.245,4,40.724,4,47a13,13,0,0,0,26,0C30,40.724,19.977,25.245,17,20.787Z"/><path d="M17,58A11.013,11.013,0,0,1,6,47a1,1,0,0,1,2,0,9.01,9.01,0,0,0,9,9,1,1,0,0,1,0,2Z"/><path d="M35,30a9.01,9.01,0,0,1-9-9c0-4.56,7.306-17.093,8.139-18.507a1.038,1.038,0,0,1,1.722,0C36.694,3.907,44,16.44,44,21A9.01,9.01,0,0,1,35,30ZM35,5c-2.535,4.475-7,12.982-7,16a7,7,0,0,0,14,0C42,17.984,37.535,9.477,35,5Z"/><path d="M35,26a5.006,5.006,0,0,1-5-5,1,1,0,0,1,2,0,3,3,0,0,0,3,3,1,1,0,0,1,0,2Z"/><path d="M50,56A12.013,12.013,0,0,1,38,44c0-6.331,10.738-20.973,11.2-21.593a1.036,1.036,0,0,1,1.61,0C51.262,23.027,62,37.669,62,44A12.013,12.013,0,0,1,50,56Zm0-31.293C46.6,29.482,40,39.664,40,44a10,10,0,0,0,20,0C60,39.662,53.4,29.481,50,24.707Z"/><path d="M50,52a8.009,8.009,0,0,1-8-8,1,1,0,0,1,2,0,6.006,6.006,0,0,0,6,6,1,1,0,0,1,0,2Z"/></g></svg>