<svg id="svg" version="1.1" width="800" height="800" xmlns="http://www.w3.org/2000/svg"><path d="M385.000 105.962 C 349.933 108.543,314.059 124.229,288.571 148.128 C 263.495 171.640,248.420 196.718,239.659 229.500 C 233.042 254.256,233.180 285.687,240.020 312.000 C 248.518 344.693,267.718 375.158,292.978 396.032 C 326.464 423.701,364.899 436.504,408.783 434.607 C 430.125 433.685,448.362 429.354,468.000 420.546 C 492.169 409.706,511.768 394.764,528.186 374.662 C 546.545 352.184,557.517 328.552,563.173 299.307 C 566.428 282.471,566.392 256.465,563.090 240.000 C 558.113 215.190,548.565 193.095,534.351 173.500 C 525.839 161.766,504.241 140.563,493.660 133.552 C 461.596 112.310,425.003 103.018,385.000 105.962 M421.553 133.893 C 430.193 138.126,440.317 147.495,447.509 157.916 C 451.978 164.389,460.000 179.861,460.000 182.005 C 460.000 183.862,440.469 186.846,422.525 187.730 L 411.000 188.297 411.000 159.149 C 411.000 135.865,411.262 130.000,412.303 130.000 C 413.019 130.000,417.182 131.752,421.553 133.893 M390.000 159.649 L 390.000 188.297 378.722 187.742 C 372.519 187.436,361.271 186.367,353.726 185.366 C 337.901 183.265,338.711 184.560,345.120 171.610 C 352.235 157.231,362.287 144.659,371.620 138.464 C 376.571 135.178,385.667 131.253,388.750 131.073 C 389.723 131.016,390.000 137.357,390.000 159.649 M334.417 147.250 C 330.096 153.790,321.653 170.242,320.047 175.250 C 318.677 179.525,318.878 179.467,311.799 177.610 C 300.396 174.620,295.000 172.822,295.000 172.015 C 295.000 170.775,312.582 156.004,319.216 151.671 C 324.810 148.018,335.820 142.119,337.193 142.040 C 337.573 142.018,336.324 144.363,334.417 147.250 M469.091 144.861 C 472.166 146.421,477.791 149.728,481.591 152.209 C 488.921 156.995,505.000 170.541,505.000 171.931 C 505.000 172.732,501.872 173.774,491.500 176.426 C 488.750 177.130,485.478 178.030,484.230 178.426 C 482.274 179.048,481.742 178.618,480.385 175.324 C 476.479 165.841,470.876 154.952,466.711 148.750 C 464.218 145.037,462.475 142.006,462.839 142.013 C 463.202 142.020,466.016 143.302,469.091 144.861 M286.000 191.385 C 295.446 194.885,304.883 197.876,308.350 198.469 C 311.723 199.047,312.121 199.399,311.564 201.314 C 309.157 209.585,305.940 228.231,304.404 242.810 L 302.592 260.000 279.296 260.000 C 266.483 260.000,256.000 259.712,256.000 259.361 C 256.000 255.394,260.719 232.978,263.069 225.787 C 267.769 211.401,278.840 189.928,281.497 190.044 C 282.049 190.068,284.075 190.671,286.000 191.385 M522.599 194.157 C 528.798 203.977,535.905 219.645,538.613 229.464 C 540.435 236.068,544.000 254.751,544.000 257.693 L 544.000 260.000 520.500 260.000 L 497.000 260.000 497.000 254.592 C 497.000 244.035,492.380 213.488,489.076 202.198 C 488.370 199.786,488.432 198.809,489.305 198.575 C 501.750 195.244,508.406 193.316,512.500 191.856 C 519.381 189.401,519.633 189.458,522.599 194.157 M468.397 205.750 C 471.277 215.226,476.000 246.267,476.000 255.720 L 476.000 260.000 443.500 260.000 L 411.000 260.000 411.000 235.131 L 411.000 210.262 414.750 209.642 C 416.813 209.301,421.437 209.017,425.026 209.011 C 431.685 209.000,440.849 207.978,456.000 205.556 C 467.416 203.732,467.785 203.738,468.397 205.750 M344.500 206.543 C 350.658 207.731,370.736 209.269,389.250 209.972 C 389.663 209.987,390.000 221.250,390.000 235.000 L 390.000 260.000 356.899 260.000 L 323.797 260.000 324.460 252.750 C 326.157 234.197,328.200 220.969,331.179 209.250 C 332.439 204.295,332.636 204.255,344.500 206.543 M303.000 285.210 C 303.000 295.842,307.912 327.119,311.537 339.571 C 312.050 341.333,311.495 341.823,307.820 342.858 C 305.444 343.527,298.445 345.715,292.268 347.721 C 286.090 349.727,280.891 351.173,280.716 350.934 C 273.857 341.603,264.363 321.623,261.386 310.255 C 259.870 304.466,257.692 293.141,256.577 285.250 L 255.976 281.000 279.488 281.000 L 303.000 281.000 303.000 285.210 M390.000 305.853 L 390.000 330.705 379.250 331.396 C 365.562 332.275,343.693 334.740,338.500 335.990 C 331.680 337.631,332.534 338.845,328.592 321.910 C 326.869 314.506,324.023 291.743,324.009 285.250 L 324.000 281.000 357.000 281.000 L 390.000 281.000 390.000 305.853 M475.981 285.750 C 475.942 295.656,469.645 334.689,467.786 336.548 C 467.499 336.834,465.227 336.611,462.735 336.053 C 457.299 334.834,435.456 332.405,421.250 331.439 L 411.000 330.742 411.000 305.871 L 411.000 281.000 443.500 281.000 L 476.000 281.000 475.981 285.750 M544.000 282.879 C 544.000 285.691,540.234 305.766,538.617 311.574 C 536.497 319.190,531.158 331.520,526.320 339.974 C 519.178 352.454,520.506 351.766,510.288 348.273 C 505.455 346.620,498.520 344.442,494.877 343.433 L 488.255 341.598 489.148 338.549 C 492.398 327.455,496.989 297.155,496.996 286.750 L 497.000 281.000 520.500 281.000 C 542.829 281.000,544.000 281.094,544.000 282.879 M120.062 300.827 C 118.188 301.832,115.832 304.188,114.827 306.062 C 111.979 311.372,112.314 316.851,117.964 357.500 C 119.034 365.200,120.110 373.300,120.355 375.500 C 120.989 381.203,123.804 400.844,125.586 412.000 C 129.285 435.157,131.401 445.844,133.211 450.500 C 138.148 463.206,156.193 487.765,180.603 515.000 C 196.785 533.055,207.703 543.307,235.464 566.514 C 251.909 580.262,255.288 586.061,255.851 601.500 C 256.198 611.023,255.061 622.331,250.079 658.897 C 249.150 665.716,248.576 672.567,248.804 674.121 C 249.358 677.896,253.395 681.760,258.110 683.030 C 260.549 683.686,276.931 683.961,302.955 683.782 L 343.956 683.500 346.484 680.972 C 348.715 678.740,349.129 677.158,350.012 667.472 C 353.585 628.311,355.195 600.302,355.212 577.000 C 355.228 554.572,354.973 550.356,353.098 542.000 C 346.623 513.138,334.600 495.233,307.102 473.500 C 282.261 453.866,268.420 441.570,243.500 416.997 C 229.200 402.896,216.179 390.538,214.564 389.534 C 210.266 386.864,200.993 386.879,197.391 389.562 C 191.720 393.787,190.498 396.507,190.525 404.849 C 190.561 415.759,191.557 417.254,225.959 458.000 C 241.725 476.673,249.951 488.353,247.662 488.813 C 245.608 489.226,243.009 487.782,234.000 481.221 C 224.018 473.952,192.999 442.494,185.628 432.165 C 180.015 424.299,174.892 413.647,173.067 406.046 C 172.599 404.096,168.515 388.100,163.991 370.500 C 159.467 352.900,155.432 336.925,155.024 335.000 C 151.101 316.481,144.859 305.706,135.541 301.367 C 129.472 298.541,124.639 298.372,120.062 300.827 M664.220 301.578 C 654.036 306.652,650.139 314.201,643.093 342.500 C 640.354 353.500,636.046 370.825,633.519 381.000 C 625.945 411.493,625.777 412.060,621.625 421.000 C 617.725 429.399,609.025 439.963,591.239 457.895 C 570.308 478.998,554.133 491.466,551.326 488.659 C 550.232 487.566,562.498 471.707,580.000 451.587 C 606.804 420.773,609.349 416.731,609.441 404.825 C 609.505 396.505,608.295 393.801,602.612 389.562 C 598.900 386.793,590.946 386.882,585.500 389.753 C 583.300 390.913,570.925 402.514,558.000 415.533 C 533.992 439.715,518.156 453.989,496.000 471.417 C 465.054 495.759,453.425 512.427,446.972 541.690 C 445.089 550.225,444.806 554.620,444.794 575.500 C 444.781 597.527,445.574 611.955,449.494 660.921 C 450.814 677.414,451.026 678.480,453.467 680.921 L 456.046 683.500 499.273 683.500 C 541.055 683.500,542.617 683.431,546.000 681.449 C 551.437 678.262,552.369 674.124,550.458 661.651 C 549.602 656.068,548.484 647.675,547.973 643.000 C 547.463 638.325,546.368 629.775,545.541 624.000 C 543.279 608.213,543.506 596.859,546.240 589.012 C 549.010 581.060,555.906 573.795,579.000 554.505 C 599.759 537.164,604.996 532.109,620.449 514.500 C 638.861 493.520,653.181 475.382,660.719 463.497 C 669.653 449.409,671.093 441.990,685.464 336.000 C 687.759 319.073,687.553 308.586,684.851 304.791 C 680.504 298.687,672.518 297.443,664.220 301.578 M390.000 381.500 C 390.000 397.725,389.663 410.993,389.250 410.985 C 387.868 410.957,381.540 408.441,377.500 406.312 C 367.464 401.026,353.720 385.611,346.326 371.352 C 339.953 359.060,339.433 357.431,341.621 356.592 C 342.545 356.238,347.845 355.467,353.400 354.880 C 358.955 354.293,366.650 353.466,370.500 353.042 C 374.350 352.618,380.313 352.210,383.750 352.136 L 390.000 352.000 390.000 381.500 M444.462 354.509 C 451.041 355.329,456.891 356.007,457.462 356.015 C 458.033 356.024,459.134 356.432,459.908 356.922 C 461.052 357.646,460.336 359.768,456.109 368.190 C 445.487 389.352,428.140 406.453,414.250 409.456 L 411.000 410.159 411.000 380.929 L 411.000 351.699 421.750 352.359 C 427.663 352.722,437.883 353.689,444.462 354.509 M322.841 371.974 C 325.216 377.460,329.599 385.834,332.580 390.582 C 335.561 395.331,338.000 399.386,338.000 399.594 C 338.000 400.395,324.154 392.448,317.090 387.593 C 309.539 382.403,294.568 369.098,295.374 368.293 C 296.154 367.513,314.422 362.129,316.511 362.063 C 318.121 362.013,319.382 363.987,322.841 371.974 M496.802 365.685 L 505.103 368.326 500.302 373.262 C 495.499 378.198,484.076 387.247,476.450 392.156 C 471.526 395.326,462.000 400.212,462.000 399.567 C 462.000 399.310,463.462 396.940,465.250 394.300 C 470.347 386.772,476.375 375.364,480.400 365.625 C 482.260 361.126,482.474 361.127,496.802 365.685 " stroke="none" fill="undefined" fill-rule="evenodd"/></svg>